<?xml version="1.0" ?><svg style="enable-background:new 0 0 48 48;" version="1.1" viewBox="0 0 48 48" xml:space="preserve" xmlns="http://www.w3.org/2000/svg" xmlns:xlink="http://www.w3.org/1999/xlink"><style type="text/css">
	.st0{display:none;}
	.st1{fill:none;stroke:#303030;stroke-width:0.7;stroke-linecap:round;stroke-linejoin:round;stroke-miterlimit:10;}
	.st2{fill:#303030;}
</style><g class="st0" id="Padding__x26__Artboard"/><g id="Icons"><g><g><path class="st1" d="M27.1572,16.81357l1.14551-1.14551c1.11016-1.11016,2.91328-1.10309,4.02344,0.00707     c0.55154,0.55154,0.83439,1.28693,0.83439,2.00818c-0.00707,0.72832-0.27577,1.44957-0.83439,2.00818l-1.14551,1.14551"/><path class="st1" d="M29.63633,16.14115c0.58096-0.3105,1.3209-0.21873,1.81076,0.27114"/><path class="st1" d="M29.77349,22.24415l-9.29845,9.29845l-5.16978,1.60181c-0.27569,0.08542-0.53436-0.17288-0.44934-0.44869     l1.59569-5.17656l9.29845-9.29845"/><line class="st1" x1="29.77349" x2="25.75006" y1="22.24415" y2="18.22071"/><line class="st1" x1="31.18064" x2="27.1572" y1="20.83701" y2="16.81357"/></g><line class="st1" x1="25.41241" x2="21.42278" y1="20.24934" y2="24.23897"/></g></g></svg>